<svg width="221" height="99" viewBox="0 0 221 99" fill="none" xmlns="http://www.w3.org/2000/svg">
<rect width="221" height="99" fill="url(#paint0_linear_40_40)"/>
<path d="M18.7614 25.7273H25.7273L31.6364 40.1364H31.9091L37.8182 25.7273H44.7841V49H39.3068V34.7045H39.1136L33.5227 48.8523H30.0227L24.4318 34.625H24.2386V49H18.7614V25.7273ZM50.7667 49H44.7213L52.5735 25.7273H60.0622L67.9144 49H61.869L56.4031 31.5909H56.2213L50.7667 49ZM49.9599 39.8409H62.5963V44.1136H49.9599V39.8409ZM67.8601 49V25.7273H77.4738C79.2162 25.7273 80.72 26.0417 81.9851 26.6705C83.2578 27.2917 84.2389 28.1856 84.9283 29.3523C85.6177 30.5114 85.9624 31.8864 85.9624 33.4773C85.9624 35.0909 85.6101 36.4621 84.9056 37.5909C84.201 38.7121 83.201 39.5682 81.9056 40.1591C80.6101 40.7424 79.076 41.0341 77.3033 41.0341H71.2238V36.6023H76.2578C77.1063 36.6023 77.8147 36.4924 78.3828 36.2727C78.9586 36.0455 79.3942 35.7045 79.6897 35.25C79.9851 34.7879 80.1328 34.197 80.1328 33.4773C80.1328 32.7576 79.9851 32.1629 79.6897 31.6932C79.3942 31.2159 78.9586 30.8598 78.3828 30.625C77.8071 30.3826 77.0988 30.2614 76.2578 30.2614H73.4851V49H67.8601ZM80.9624 38.3636L86.7578 49H80.6215L74.9397 38.3636H80.9624ZM91.0842 25.7273L96.2887 42.7727H96.4819L101.686 25.7273H107.982L100.13 49H92.641L84.7887 25.7273H91.0842ZM107.928 49V25.7273H124.155V30.2955H113.553V35.0682H123.325V39.6477H113.553V44.4318H124.155V49H107.928ZM125.118 49V25.7273H130.743V44.4318H140.424V49H125.118ZM161.836 37.3636C161.836 39.9242 161.344 42.0947 160.359 43.875C159.374 45.6553 158.041 47.0076 156.359 47.9318C154.685 48.8561 152.806 49.3182 150.722 49.3182C148.631 49.3182 146.749 48.8523 145.075 47.9205C143.4 46.9886 142.071 45.6364 141.086 43.8636C140.109 42.0833 139.62 39.9167 139.62 37.3636C139.62 34.803 140.109 32.6326 141.086 30.8523C142.071 29.072 143.4 27.7197 145.075 26.7955C146.749 25.8712 148.631 25.4091 150.722 25.4091C152.806 25.4091 154.685 25.8712 156.359 26.7955C158.041 27.7197 159.374 29.072 160.359 30.8523C161.344 32.6326 161.836 34.803 161.836 37.3636ZM156.086 37.3636C156.086 35.8485 155.87 34.5682 155.438 33.5227C155.014 32.4773 154.4 31.6856 153.597 31.1477C152.802 30.6098 151.844 30.3409 150.722 30.3409C149.609 30.3409 148.65 30.6098 147.847 31.1477C147.044 31.6856 146.427 32.4773 145.995 33.5227C145.571 34.5682 145.359 35.8485 145.359 37.3636C145.359 38.8788 145.571 40.1591 145.995 41.2045C146.427 42.25 147.044 43.0417 147.847 43.5795C148.65 44.1174 149.609 44.3864 150.722 44.3864C151.844 44.3864 152.802 44.1174 153.597 43.5795C154.4 43.0417 155.014 42.25 155.438 41.2045C155.87 40.1591 156.086 38.8788 156.086 37.3636ZM176.64 25.7273H182.253V40.7386C182.253 42.4735 181.84 43.9848 181.015 45.2727C180.189 46.553 179.037 47.5455 177.56 48.25C176.083 48.947 174.367 49.2955 172.412 49.2955C170.435 49.2955 168.708 48.947 167.231 48.25C165.753 47.5455 164.606 46.553 163.787 45.2727C162.969 43.9848 162.56 42.4735 162.56 40.7386V25.7273H168.185V40.25C168.185 41.053 168.359 41.7689 168.708 42.3977C169.064 43.0265 169.56 43.5189 170.196 43.875C170.833 44.2311 171.571 44.4091 172.412 44.4091C173.253 44.4091 173.988 44.2311 174.617 43.875C175.253 43.5189 175.75 43.0265 176.106 42.3977C176.462 41.7689 176.64 41.053 176.64 40.25V25.7273ZM195.798 32.7045C195.723 31.8712 195.386 31.2235 194.787 30.7614C194.196 30.2917 193.351 30.0568 192.253 30.0568C191.526 30.0568 190.92 30.1515 190.435 30.3409C189.95 30.5303 189.586 30.7917 189.344 31.125C189.101 31.4508 188.976 31.8258 188.969 32.25C188.954 32.5985 189.022 32.9053 189.173 33.1705C189.333 33.4356 189.56 33.6705 189.855 33.875C190.158 34.072 190.522 34.2462 190.946 34.3977C191.37 34.5492 191.848 34.6818 192.378 34.7955L194.378 35.25C195.529 35.5 196.545 35.8333 197.423 36.25C198.31 36.6667 199.052 37.1629 199.651 37.7386C200.257 38.3144 200.715 38.9773 201.026 39.7273C201.336 40.4773 201.495 41.3182 201.503 42.25C201.495 43.7197 201.124 44.9811 200.389 46.0341C199.654 47.0871 198.598 47.8939 197.219 48.4545C195.848 49.0152 194.192 49.2955 192.253 49.2955C190.306 49.2955 188.609 49.0038 187.162 48.4205C185.715 47.8371 184.59 46.9508 183.787 45.7614C182.984 44.572 182.571 43.0682 182.548 41.25H187.935C187.98 42 188.181 42.625 188.537 43.125C188.893 43.625 189.382 44.0038 190.003 44.2614C190.632 44.5189 191.359 44.6477 192.185 44.6477C192.942 44.6477 193.586 44.5455 194.117 44.3409C194.654 44.1364 195.067 43.8523 195.355 43.4886C195.643 43.125 195.791 42.7083 195.798 42.2386C195.791 41.7992 195.654 41.4242 195.389 41.1136C195.124 40.7955 194.715 40.5227 194.162 40.2955C193.617 40.0606 192.92 39.8447 192.071 39.6477L189.639 39.0795C187.624 38.6174 186.037 37.8712 184.878 36.8409C183.719 35.803 183.143 34.4015 183.151 32.6364C183.143 31.197 183.529 29.9356 184.31 28.8523C185.09 27.7689 186.17 26.9242 187.548 26.3182C188.927 25.7121 190.499 25.4091 192.264 25.4091C194.067 25.4091 195.632 25.7159 196.958 26.3295C198.291 26.9356 199.325 27.7879 200.06 28.8864C200.795 29.9848 201.17 31.2576 201.185 32.7045H195.798Z" fill="white"/>
<rect x="9.5" y="12.5" width="197" height="48" stroke="white" stroke-width="3"/>
<path d="M8.66051 75.2727H11.2727L13.4886 80.6761H13.5909L15.8068 75.2727H18.419V84H16.3651V78.6392H16.2926L14.196 83.9446H12.8835L10.7869 78.6094H10.7145V84H8.66051V75.2727ZM66.7919 79.6364C66.7919 80.5966 66.6073 81.4105 66.238 82.0781C65.8687 82.7457 65.3687 83.2528 64.738 83.5994C64.1101 83.946 63.4056 84.1193 62.6243 84.1193C61.8402 84.1193 61.1343 83.9446 60.5064 83.5952C59.8786 83.2457 59.38 82.7386 59.0107 82.0739C58.6442 81.4062 58.461 80.5937 58.461 79.6364C58.461 78.6761 58.6442 77.8622 59.0107 77.1946C59.38 76.527 59.8786 76.0199 60.5064 75.6733C61.1343 75.3267 61.8402 75.1534 62.6243 75.1534C63.4056 75.1534 64.1101 75.3267 64.738 75.6733C65.3687 76.0199 65.8687 76.527 66.238 77.1946C66.6073 77.8622 66.7919 78.6761 66.7919 79.6364ZM64.6357 79.6364C64.6357 79.0682 64.5547 78.5881 64.3928 78.196C64.2337 77.804 64.0036 77.5071 63.7025 77.3054C63.4042 77.1037 63.0448 77.0028 62.6243 77.0028C62.2067 77.0028 61.8473 77.1037 61.5462 77.3054C61.2451 77.5071 61.0135 77.804 60.8516 78.196C60.6925 78.5881 60.613 79.0682 60.613 79.6364C60.613 80.2045 60.6925 80.6847 60.8516 81.0767C61.0135 81.4687 61.2451 81.7656 61.5462 81.9673C61.8473 82.169 62.2067 82.2699 62.6243 82.2699C63.0448 82.2699 63.4042 82.169 63.7025 81.9673C64.0036 81.7656 64.2337 81.4687 64.3928 81.0767C64.5547 80.6847 64.6357 80.2045 64.6357 79.6364ZM108.309 75.2727L110.261 81.6648H110.334L112.285 75.2727H114.646L111.701 84H108.893L105.949 75.2727H108.309ZM154.406 84V75.2727H160.491V76.9858H156.515V78.7756H160.18V80.4929H156.515V82.2869H160.491V84H154.406ZM205.349 77.8892C205.321 77.5767 205.194 77.3338 204.97 77.1605C204.748 76.9844 204.432 76.8963 204.02 76.8963C203.747 76.8963 203.52 76.9318 203.338 77.0028C203.156 77.0739 203.02 77.1719 202.929 77.2969C202.838 77.419 202.791 77.5597 202.788 77.7188C202.782 77.8494 202.808 77.9645 202.865 78.0639C202.925 78.1634 203.01 78.2514 203.121 78.3281C203.234 78.402 203.371 78.4673 203.53 78.5241C203.689 78.581 203.868 78.6307 204.067 78.6733L204.817 78.8438C205.248 78.9375 205.629 79.0625 205.959 79.2188C206.291 79.375 206.569 79.5611 206.794 79.777C207.021 79.9929 207.193 80.2415 207.309 80.5227C207.426 80.804 207.486 81.1193 207.488 81.4688C207.486 82.0199 207.346 82.4929 207.071 82.8878C206.795 83.2827 206.399 83.5852 205.882 83.7955C205.368 84.0057 204.747 84.1108 204.02 84.1108C203.29 84.1108 202.653 84.0014 202.111 83.7827C201.568 83.5639 201.146 83.2315 200.845 82.7855C200.544 82.3395 200.389 81.7756 200.38 81.0938H202.4C202.417 81.375 202.493 81.6094 202.626 81.7969C202.76 81.9844 202.943 82.1264 203.176 82.223C203.412 82.3196 203.684 82.3679 203.994 82.3679C204.278 82.3679 204.52 82.3295 204.719 82.2528C204.92 82.1761 205.075 82.0696 205.183 81.9332C205.291 81.7969 205.346 81.6406 205.349 81.4645C205.346 81.2997 205.295 81.1591 205.196 81.0426C205.096 80.9233 204.943 80.821 204.736 80.7358C204.531 80.6477 204.27 80.5668 203.952 80.4929L203.04 80.2798C202.284 80.1065 201.689 79.8267 201.254 79.4403C200.819 79.0511 200.604 78.5256 200.606 77.8636C200.604 77.3239 200.748 76.8509 201.041 76.4446C201.334 76.0384 201.738 75.7216 202.255 75.4943C202.773 75.267 203.362 75.1534 204.024 75.1534C204.7 75.1534 205.287 75.2685 205.784 75.4986C206.284 75.7259 206.672 76.0455 206.947 76.4574C207.223 76.8693 207.363 77.3466 207.369 77.8892H205.349Z" fill="white"/>
<defs>
<linearGradient id="paint0_linear_40_40" x1="0" y1="0" x2="282.5" y2="99" gradientUnits="userSpaceOnUse">
<stop stop-color="#C32A3A"/>
<stop offset="1" stop-color="#E96A34"/>
</linearGradient>
</defs>
</svg>
