<svg width="221" height="39" viewBox="0 0 221 39" fill="none" xmlns="http://www.w3.org/2000/svg">
<rect width="221" height="39" rx="11" fill="url(#paint0_linear_45_328)"/>
<path d="M38.0057 10.5455V28H35.5852L26.7131 15.1989H26.5511V28H23.9176V10.5455H26.3551L35.2358 23.3636H35.3977V10.5455H38.0057ZM47.2848 28.2642C45.995 28.2642 44.8842 27.9886 43.9524 27.4375C43.0263 26.8807 42.3104 26.0994 41.8047 25.0938C41.3047 24.0824 41.0547 22.8977 41.0547 21.5398C41.0547 20.1989 41.3047 19.017 41.8047 17.9943C42.3104 16.9716 43.0149 16.1733 43.9183 15.5994C44.8274 15.0256 45.8899 14.7386 47.1058 14.7386C47.8445 14.7386 48.5604 14.8608 49.2536 15.1051C49.9467 15.3494 50.5689 15.733 51.12 16.2557C51.6712 16.7784 52.1058 17.4574 52.424 18.2926C52.7422 19.1222 52.9013 20.1307 52.9013 21.3182V22.2216H42.495V20.3125H50.4041C50.4041 19.642 50.2678 19.0483 49.995 18.5312C49.7223 18.0085 49.3388 17.5966 48.8445 17.2955C48.3558 16.9943 47.782 16.8438 47.1229 16.8438C46.407 16.8438 45.782 17.0199 45.2479 17.3722C44.7195 17.7187 44.3104 18.1733 44.0206 18.7358C43.7365 19.2926 43.5945 19.8977 43.5945 20.5511V22.0426C43.5945 22.9176 43.7479 23.6619 44.0547 24.2756C44.3672 24.8892 44.8018 25.358 45.3587 25.6818C45.9155 26 46.5661 26.1591 47.3104 26.1591C47.7933 26.1591 48.2337 26.0909 48.6314 25.9545C49.0291 25.8125 49.3729 25.6023 49.6626 25.3239C49.9524 25.0455 50.174 24.7017 50.3274 24.2926L52.7393 24.7273C52.5462 25.4375 52.1996 26.0597 51.6996 26.5938C51.2053 27.1222 50.5831 27.5341 49.8331 27.8295C49.0888 28.1193 48.2393 28.2642 47.2848 28.2642ZM58.5433 28L54.6911 14.9091H57.3246L59.8899 24.5227H60.0178L62.5916 14.9091H65.2251L67.782 24.4801H67.9098L70.4581 14.9091H73.0916L69.2479 28H66.6484L63.9893 18.5483H63.7933L61.1342 28H58.5433ZM83.5405 28H80.745L87.0263 10.5455H90.0689L96.3501 28H93.5547L88.62 13.7159H88.4837L83.5405 28ZM84.0092 21.1648H93.0774V23.3807H84.0092V21.1648ZM103.356 28.2557C102.299 28.2557 101.356 27.9858 100.526 27.446C99.7024 26.9006 99.0547 26.125 98.5831 25.1193C98.1172 24.108 97.8842 22.8949 97.8842 21.4801C97.8842 20.0653 98.12 18.8551 98.5916 17.8494C99.0689 16.8437 99.7223 16.0739 100.552 15.5398C101.381 15.0057 102.322 14.7386 103.373 14.7386C104.185 14.7386 104.839 14.875 105.333 15.1477C105.833 15.4148 106.219 15.7273 106.492 16.0852C106.771 16.4432 106.987 16.7585 107.14 17.0312H107.293V10.5455H109.842V28H107.353V25.9631H107.14C106.987 26.2415 106.765 26.5597 106.475 26.9176C106.191 27.2756 105.799 27.5881 105.299 27.8551C104.799 28.1222 104.151 28.2557 103.356 28.2557ZM103.918 26.0824C104.651 26.0824 105.271 25.8892 105.776 25.5028C106.288 25.1108 106.674 24.5682 106.935 23.875C107.202 23.1818 107.336 22.375 107.336 21.4545C107.336 20.5455 107.205 19.75 106.944 19.0682C106.683 18.3864 106.299 17.8551 105.793 17.4744C105.288 17.0937 104.663 16.9034 103.918 16.9034C103.151 16.9034 102.512 17.1023 102.001 17.5C101.489 17.8977 101.103 18.4403 100.842 19.1278C100.586 19.8153 100.458 20.5909 100.458 21.4545C100.458 22.3295 100.589 23.1165 100.85 23.8153C101.112 24.5142 101.498 25.0682 102.009 25.4773C102.526 25.8807 103.163 26.0824 103.918 26.0824ZM124.678 14.9091L119.93 28H117.203L112.447 14.9091H115.183L118.499 24.983H118.635L121.942 14.9091H124.678ZM132.269 28.2642C130.979 28.2642 129.869 27.9886 128.937 27.4375C128.011 26.8807 127.295 26.0994 126.789 25.0938C126.289 24.0824 126.039 22.8977 126.039 21.5398C126.039 20.1989 126.289 19.017 126.789 17.9943C127.295 16.9716 127.999 16.1733 128.903 15.5994C129.812 15.0256 130.874 14.7386 132.09 14.7386C132.829 14.7386 133.545 14.8608 134.238 15.1051C134.931 15.3494 135.553 15.733 136.104 16.2557C136.656 16.7784 137.09 17.4574 137.408 18.2926C137.727 19.1222 137.886 20.1307 137.886 21.3182V22.2216H127.479V20.3125H135.388C135.388 19.642 135.252 19.0483 134.979 18.5312C134.707 18.0085 134.323 17.5966 133.829 17.2955C133.34 16.9943 132.766 16.8438 132.107 16.8438C131.391 16.8438 130.766 17.0199 130.232 17.3722C129.704 17.7187 129.295 18.1733 129.005 18.7358C128.721 19.2926 128.579 19.8977 128.579 20.5511V22.0426C128.579 22.9176 128.732 23.6619 129.039 24.2756C129.352 24.8892 129.786 25.358 130.343 25.6818C130.9 26 131.55 26.1591 132.295 26.1591C132.778 26.1591 133.218 26.0909 133.616 25.9545C134.013 25.8125 134.357 25.6023 134.647 25.3239C134.937 25.0455 135.158 24.7017 135.312 24.2926L137.724 24.7273C137.531 25.4375 137.184 26.0597 136.684 26.5938C136.19 27.1222 135.567 27.5341 134.817 27.8295C134.073 28.1193 133.224 28.2642 132.269 28.2642ZM143.261 20.2273V28H140.713V14.9091H143.159V17.0398H143.321C143.622 16.3466 144.094 15.7898 144.736 15.3693C145.384 14.9489 146.199 14.7386 147.182 14.7386C148.074 14.7386 148.855 14.9261 149.526 15.3011C150.196 15.6705 150.716 16.2216 151.085 16.9545C151.455 17.6875 151.639 18.5937 151.639 19.6733V28H149.091V19.9801C149.091 19.0312 148.844 18.2898 148.349 17.7557C147.855 17.2159 147.176 16.946 146.312 16.946C145.722 16.946 145.196 17.0739 144.736 17.3295C144.281 17.5852 143.92 17.9602 143.653 18.4545C143.392 18.9432 143.261 19.5341 143.261 20.2273ZM161.168 14.9091V16.9545H154.017V14.9091H161.168ZM155.935 11.7727H158.483V24.1562C158.483 24.6506 158.557 25.0227 158.705 25.2727C158.852 25.517 159.043 25.6847 159.276 25.7756C159.514 25.8608 159.773 25.9034 160.051 25.9034C160.256 25.9034 160.435 25.8892 160.588 25.8608C160.741 25.8324 160.861 25.8097 160.946 25.7926L161.406 27.8977C161.259 27.9545 161.048 28.0114 160.776 28.0682C160.503 28.1307 160.162 28.1648 159.753 28.1705C159.082 28.1818 158.457 28.0625 157.878 27.8125C157.298 27.5625 156.83 27.1761 156.472 26.6534C156.114 26.1307 155.935 25.4744 155.935 24.6847V11.7727ZM172.279 22.571V14.9091H174.836V28H172.33V25.733H172.194C171.893 26.4318 171.41 27.0142 170.745 27.4801C170.086 27.9403 169.265 28.1705 168.282 28.1705C167.441 28.1705 166.697 27.9858 166.049 27.6165C165.407 27.2415 164.901 26.6875 164.532 25.9545C164.168 25.2216 163.987 24.3153 163.987 23.2358V14.9091H166.535V22.929C166.535 23.821 166.782 24.5312 167.276 25.0597C167.771 25.5881 168.413 25.8523 169.202 25.8523C169.68 25.8523 170.154 25.733 170.626 25.4943C171.103 25.2557 171.498 24.8949 171.81 24.4119C172.129 23.929 172.285 23.3153 172.279 22.571ZM178.26 28V14.9091H180.723V16.9886H180.859C181.098 16.2841 181.518 15.7301 182.121 15.3267C182.729 14.9176 183.416 14.7131 184.183 14.7131C184.342 14.7131 184.53 14.7187 184.746 14.7301C184.967 14.7415 185.141 14.7557 185.266 14.7727V17.2102C185.163 17.1818 184.982 17.1506 184.72 17.1165C184.459 17.0767 184.197 17.0568 183.936 17.0568C183.334 17.0568 182.797 17.1847 182.325 17.4403C181.859 17.6903 181.49 18.0398 181.217 18.4886C180.945 18.9318 180.808 19.4375 180.808 20.0057V28H178.26ZM192.644 28.2642C191.354 28.2642 190.244 27.9886 189.312 27.4375C188.386 26.8807 187.67 26.0994 187.164 25.0938C186.664 24.0824 186.414 22.8977 186.414 21.5398C186.414 20.1989 186.664 19.017 187.164 17.9943C187.67 16.9716 188.374 16.1733 189.278 15.5994C190.187 15.0256 191.249 14.7386 192.465 14.7386C193.204 14.7386 193.92 14.8608 194.613 15.1051C195.306 15.3494 195.928 15.733 196.479 16.2557C197.031 16.7784 197.465 17.4574 197.783 18.2926C198.102 19.1222 198.261 20.1307 198.261 21.3182V22.2216H187.854V20.3125H195.763C195.763 19.642 195.627 19.0483 195.354 18.5312C195.082 18.0085 194.698 17.5966 194.204 17.2955C193.715 16.9943 193.141 16.8438 192.482 16.8438C191.766 16.8438 191.141 17.0199 190.607 17.3722C190.079 17.7187 189.67 18.1733 189.38 18.7358C189.096 19.2926 188.954 19.8977 188.954 20.5511V22.0426C188.954 22.9176 189.107 23.6619 189.414 24.2756C189.727 24.8892 190.161 25.358 190.718 25.6818C191.275 26 191.925 26.1591 192.67 26.1591C193.153 26.1591 193.593 26.0909 193.991 25.9545C194.388 25.8125 194.732 25.6023 195.022 25.3239C195.312 25.0455 195.533 24.7017 195.687 24.2926L198.099 24.7273C197.906 25.4375 197.559 26.0597 197.059 26.5938C196.565 27.1222 195.942 27.5341 195.192 27.8295C194.448 28.1193 193.599 28.2642 192.644 28.2642Z" fill="white"/>
<defs>
<linearGradient id="paint0_linear_45_328" x1="0" y1="0" x2="177.069" y2="157.518" gradientUnits="userSpaceOnUse">
<stop stop-color="#C32A3A"/>
<stop offset="1" stop-color="#E96A34"/>
</linearGradient>
</defs>
</svg>
